<svg width="139" height="58" viewBox="0 0 139 58" fill="none" xmlns="http://www.w3.org/2000/svg">
<g clip-path="url(#clip0_1469_7790)">
<path d="M18.4471 31.4471H0V13H18.4471V31.4471ZM4.89405 26.5529H13.5529V17.8941H4.89405V26.5529Z" fill="#D9E021"/>
<path d="M32 31.4471H13.553V29C13.5578 24.758 15.245 20.6911 18.2446 17.6916C21.2441 14.692 25.311 13.0048 29.553 13H32V31.4471ZM18.7187 26.553H27.1059V18.1657C25.06 18.6323 23.1875 19.667 21.7037 21.1507C20.2199 22.6345 19.1852 24.5071 18.7187 26.5529V26.553Z" fill="#22B573"/>
<path d="M18.4471 45.0003H0V26.5532H18.4471V45.0003ZM4.89405 40.1061H13.5529V31.4473H4.89405V40.1061Z" fill="#006837"/>
</g>
<path d="M46.324 39V19.4H54.808C56.5627 19.4 58.0747 19.6893 59.344 20.268C60.6133 20.828 61.5933 21.64 62.284 22.704C62.9747 23.768 63.32 25.0373 63.32 26.512C63.32 27.968 62.9747 29.228 62.284 30.292C61.5933 31.3373 60.6133 32.14 59.344 32.7C58.0747 33.26 56.5627 33.54 54.808 33.54H48.844L50.86 31.552V39H46.324ZM58.784 39L53.884 31.888H58.728L63.684 39H58.784ZM50.86 32.056L48.844 29.928H54.556C55.956 29.928 57.0013 29.6293 57.692 29.032C58.3827 28.416 58.728 27.576 58.728 26.512C58.728 25.4293 58.3827 24.5893 57.692 23.992C57.0013 23.3947 55.956 23.096 54.556 23.096H48.844L50.86 20.94V32.056ZM75.7091 39V36.06L75.4291 35.416V30.152C75.4291 29.2187 75.1398 28.4907 74.5611 27.968C74.0011 27.4453 73.1331 27.184 71.9571 27.184C71.1545 27.184 70.3611 27.3147 69.5771 27.576C68.8118 27.8187 68.1585 28.1547 67.6171 28.584L66.0491 25.532C66.8705 24.9533 67.8598 24.5053 69.0171 24.188C70.1745 23.8707 71.3505 23.712 72.5451 23.712C74.8411 23.712 76.6238 24.2533 77.8931 25.336C79.1625 26.4187 79.7971 28.108 79.7971 30.404V39H75.7091ZM71.1171 39.224C69.9411 39.224 68.9331 39.028 68.0931 38.636C67.2531 38.2253 66.6091 37.6747 66.1611 36.984C65.7131 36.2933 65.4891 35.5187 65.4891 34.66C65.4891 33.764 65.7038 32.98 66.1331 32.308C66.5811 31.636 67.2811 31.1133 68.2331 30.74C69.1851 30.348 70.4265 30.152 71.9571 30.152H75.9611V32.7H72.4331C71.4065 32.7 70.6971 32.868 70.3051 33.204C69.9318 33.54 69.7451 33.96 69.7451 34.464C69.7451 35.024 69.9598 35.472 70.3891 35.808C70.8371 36.1253 71.4438 36.284 72.2091 36.284C72.9371 36.284 73.5905 36.116 74.1691 35.78C74.7478 35.4253 75.1678 34.912 75.4291 34.24L76.1011 36.256C75.7838 37.2267 75.2051 37.964 74.3651 38.468C73.5251 38.972 72.4425 39.224 71.1171 39.224ZM88.8184 39.224C87.5304 39.224 86.289 39.0747 85.0944 38.776C83.9184 38.4587 82.985 38.0667 82.2944 37.6L83.7504 34.464C84.441 34.8933 85.253 35.248 86.1864 35.528C87.1384 35.7893 88.0717 35.92 88.9864 35.92C89.9944 35.92 90.7037 35.7987 91.1144 35.556C91.5437 35.3133 91.7584 34.9773 91.7584 34.548C91.7584 34.1933 91.5904 33.932 91.2544 33.764C90.937 33.5773 90.5077 33.4373 89.9664 33.344C89.425 33.2507 88.8277 33.1573 88.1744 33.064C87.5397 32.9707 86.8957 32.8493 86.2424 32.7C85.589 32.532 84.9917 32.2893 84.4504 31.972C83.909 31.6547 83.4704 31.2253 83.1344 30.684C82.817 30.1427 82.6584 29.4427 82.6584 28.584C82.6584 27.632 82.929 26.792 83.4704 26.064C84.0304 25.336 84.833 24.7667 85.8784 24.356C86.9237 23.9267 88.1744 23.712 89.6304 23.712C90.657 23.712 91.7024 23.824 92.7664 24.048C93.8304 24.272 94.717 24.5987 95.4264 25.028L93.9704 28.136C93.2424 27.7067 92.505 27.4173 91.7584 27.268C91.0304 27.1 90.321 27.016 89.6304 27.016C88.6597 27.016 87.9504 27.1467 87.5024 27.408C87.0544 27.6693 86.8304 28.0053 86.8304 28.416C86.8304 28.7893 86.989 29.0693 87.3064 29.256C87.6424 29.4427 88.081 29.592 88.6224 29.704C89.1637 29.816 89.7517 29.9187 90.3864 30.012C91.0397 30.0867 91.693 30.208 92.3464 30.376C92.9997 30.544 93.5877 30.7867 94.1104 31.104C94.6517 31.4027 95.0904 31.8227 95.4264 32.364C95.7624 32.8867 95.9304 33.5773 95.9304 34.436C95.9304 35.3693 95.6504 36.2 95.0904 36.928C94.5304 37.6373 93.7184 38.1973 92.6544 38.608C91.609 39.0187 90.3304 39.224 88.8184 39.224ZM104.785 39.224C103.012 39.224 101.631 38.776 100.641 37.88C99.652 36.9653 99.1574 35.612 99.1574 33.82V20.604H103.525V33.764C103.525 34.3987 103.693 34.8933 104.029 35.248C104.365 35.584 104.823 35.752 105.401 35.752C106.092 35.752 106.68 35.5653 107.165 35.192L108.341 38.272C107.893 38.5893 107.352 38.832 106.717 39C106.101 39.1493 105.457 39.224 104.785 39.224ZM96.8334 27.632V24.272H107.277V27.632H96.8334ZM120.033 39V36.06L119.753 35.416V30.152C119.753 29.2187 119.464 28.4907 118.885 27.968C118.325 27.4453 117.457 27.184 116.281 27.184C115.479 27.184 114.685 27.3147 113.901 27.576C113.136 27.8187 112.483 28.1547 111.941 28.584L110.373 25.532C111.195 24.9533 112.184 24.5053 113.341 24.188C114.499 23.8707 115.675 23.712 116.869 23.712C119.165 23.712 120.948 24.2533 122.217 25.336C123.487 26.4187 124.121 28.108 124.121 30.404V39H120.033ZM115.441 39.224C114.265 39.224 113.257 39.028 112.417 38.636C111.577 38.2253 110.933 37.6747 110.485 36.984C110.037 36.2933 109.813 35.5187 109.813 34.66C109.813 33.764 110.028 32.98 110.457 32.308C110.905 31.636 111.605 31.1133 112.557 30.74C113.509 30.348 114.751 30.152 116.281 30.152H120.285V32.7H116.757C115.731 32.7 115.021 32.868 114.629 33.204C114.256 33.54 114.069 33.96 114.069 34.464C114.069 35.024 114.284 35.472 114.713 35.808C115.161 36.1253 115.768 36.284 116.533 36.284C117.261 36.284 117.915 36.116 118.493 35.78C119.072 35.4253 119.492 34.912 119.753 34.24L120.425 36.256C120.108 37.2267 119.529 37.964 118.689 38.468C117.849 38.972 116.767 39.224 115.441 39.224Z" fill="#22B573"/>
<defs>
<clipPath id="clip0_1469_7790">
<rect width="32" height="32" fill="white" transform="translate(0 13)"/>
</clipPath>
</defs>
</svg>
