<svg width="40" height="40" viewBox="0 0 40 40" fill="none" xmlns="http://www.w3.org/2000/svg">
<rect width="40" height="40" rx="20" fill="#22B573"/>
<path d="M14.62 18.79C16.06 21.62 18.38 23.93 21.21 25.38L23.41 23.18C23.68 22.91 24.08 22.82 24.43 22.94C25.55 23.31 26.76 23.51 28 23.51C28.55 23.51 29 23.96 29 24.51V28C29 28.55 28.55 29 28 29C18.61 29 11 21.39 11 12C11 11.45 11.45 11 12 11H15.5C16.05 11 16.5 11.45 16.5 12C16.5 13.25 16.7 14.45 17.07 15.57C17.18 15.92 17.1 16.31 16.82 16.59L14.62 18.79Z" fill="white"/>
</svg>
