<?xml version="1.0" encoding="utf-8"?>
<!-- Generator: Adobe Illustrator 26.3.1, SVG Export Plug-In . SVG Version: 6.00 Build 0)  -->
<svg version="1.0" id="Layer_1" xmlns="http://www.w3.org/2000/svg" xmlns:xlink="http://www.w3.org/1999/xlink" x="0px" y="0px"
	 viewBox="0 0 176.3 50.9" style="enable-background:new 0 0 176.3 50.9;" xml:space="preserve">
<style type="text/css">
	.st0{fill:#D9E026;}
	.st1{fill:#20B573;}
	.st2{fill:#006937;}
</style>
<g>
	<path id="fullLogo_00000131361921909657500170000010973155007871101849_" class="st0" d="M30.3,29.4H13.6V12.7h16.7V29.4z M18,24.9
		h7.8v-7.8H18V24.9z"/>
	<path id="fullLogo_00000083051688658530866520000002947238319243671186_" class="st1" d="M42.5,29.4H25.8v-2.2
		c0-8,6.5-14.5,14.5-14.5h2.2V29.4z M30.5,24.9h7.6v-7.6C34.3,18.2,31.4,21.2,30.5,24.9z"/>
	<path id="fullLogo_00000045593656203815591680000006633863697793198492_" class="st2" d="M30.3,41.6H13.6V24.9h16.7V41.6z M18,37.2
		h7.8v-7.8H18V37.2z"/>
	<g>
		<path id="fullLogo_00000049942520304039976330000014427083213077305473_" class="st1" d="M58.6,16.4h6v3.8c1-1.3,2.3-2.2,4.1-2.9
			c1.8-0.6,3.8-0.9,6-0.9v4.7c-2.4,0-4.5,0.4-6.2,1.1c-1.8,0.7-3,1.9-3.7,3.5V40h-6.2V16.4z"/>
		<path id="fullLogo_00000041289013754455570890000000944906904783836321_" class="st1" d="M76.9,38.5c-1.8-1.5-2.7-3.5-2.7-6
			c0-2.6,0.9-4.7,2.6-6.2c1.7-1.5,4.1-2.2,7.2-2.2c3,0,5.6,0.6,7.7,1.8v-0.6c0-1.7-0.5-2.9-1.5-3.6c-1-0.8-2.7-1.1-5-1.1
			c-1.4,0-2.9,0.1-4.3,0.4c-1.4,0.3-2.7,0.7-3.7,1.2v-4.9c1-0.5,2.3-0.8,4-1.1c1.7-0.3,3.3-0.4,4.8-0.4c4.1,0,7.1,0.9,9.1,2.6
			c2,1.8,3,4.2,3,7.3V40H92v-2.3c-1,1-2.2,1.7-3.5,2.3c-1.3,0.5-2.9,0.8-4.7,0.8C81,40.7,78.7,40,76.9,38.5z M89.1,35.4
			c1.1-0.5,2-1.3,2.6-2.2v-2.6c-1.8-1.3-3.9-1.9-6.2-1.9c-3.3,0-5,1.3-5,3.8c0,1.2,0.4,2.2,1.3,2.8c0.8,0.6,2,0.9,3.6,0.9
			C86.7,36.2,87.9,35.9,89.1,35.4z"/>
		<path id="fullLogo_00000105388520235547496220000000969682918004343742_" class="st1" d="M104.5,40.1c-1.9-0.4-3.4-0.9-4.5-1.6
			v-5.3c1.3,0.8,2.8,1.4,4.6,1.9c1.8,0.5,3.4,0.7,5,0.7s2.7-0.1,3.4-0.4c0.7-0.3,1.1-0.8,1.1-1.6c0-0.6-0.2-1.1-0.6-1.5
			c-0.4-0.4-1-0.7-1.8-1c-0.8-0.3-2.1-0.7-3.9-1.2c-2-0.6-3.5-1.1-4.7-1.7c-1.1-0.6-2-1.3-2.6-2.2c-0.6-0.9-0.9-2.1-0.9-3.5
			c0-2.4,0.9-4.1,2.8-5.3c1.9-1.2,4.4-1.8,7.6-1.8c1.6,0,3.3,0.2,4.9,0.5c1.6,0.3,2.9,0.7,3.8,1.3v5.1c-1-0.6-2.2-1.1-3.6-1.4
			c-1.4-0.4-2.9-0.5-4.3-0.5c-1.6,0-2.8,0.2-3.6,0.5c-0.8,0.3-1.2,0.9-1.2,1.8c0,0.6,0.2,1.1,0.7,1.4c0.4,0.3,1,0.6,1.7,0.9
			c0.7,0.2,2,0.6,3.9,1.1c2,0.6,3.6,1.2,4.8,1.8c1.1,0.7,2,1.4,2.5,2.4c0.5,0.9,0.7,2.1,0.7,3.4c0,2.1-0.9,3.8-2.7,5
			c-1.8,1.3-4.4,1.9-7.8,1.9C108.2,40.7,106.4,40.5,104.5,40.1z"/>
		<path id="fullLogo_00000104666922103050285110000012504545939850562731_" class="st1" d="M126.6,38.6c-1.3-1.4-2-3.5-2-6.1V21.1
			H121v-4.7h3.5V9.3h6.2v7.1h5.7v4.7h-5.7v10.6c0,1.5,0.3,2.6,0.8,3.2c0.6,0.6,1.6,1,3.1,1c1,0,2-0.2,3-0.7v4.7
			c-1.4,0.6-3.1,0.8-5.2,0.8C129.9,40.7,127.9,40,126.6,38.6z"/>
		<path id="fullLogo_00000056418937946297533070000004433278604567651736_" class="st1" d="M141.7,38.5c-1.8-1.5-2.7-3.5-2.7-6
			c0-2.6,0.9-4.7,2.6-6.2c1.7-1.5,4.1-2.2,7.2-2.2c3,0,5.6,0.6,7.7,1.8v-0.6c0-1.7-0.5-2.9-1.6-3.6c-1-0.8-2.7-1.1-5-1.1
			c-1.4,0-2.9,0.1-4.3,0.4c-1.4,0.3-2.7,0.7-3.7,1.2v-4.9c1-0.5,2.3-0.8,4-1.1c1.7-0.3,3.3-0.4,4.8-0.4c4.1,0,7.1,0.9,9.1,2.6
			s3,4.2,3,7.3V40h-5.9v-2.3c-1,1-2.2,1.7-3.5,2.3c-1.3,0.5-2.9,0.8-4.7,0.8C145.8,40.7,143.5,40,141.7,38.5z M153.9,35.4
			c1.1-0.5,2-1.3,2.6-2.2v-2.6c-1.8-1.3-3.9-1.9-6.2-1.9c-3.3,0-5,1.3-5,3.8c0,1.2,0.4,2.2,1.3,2.8c0.8,0.6,2,0.9,3.6,0.9
			C151.5,36.2,152.8,35.9,153.9,35.4z"/>
	</g>
</g>
</svg>
